<svg id="REG__4px_" data-name="REG_[4px]" xmlns="http://www.w3.org/2000/svg" viewBox="0 0 80 80"><defs><style>.cls-1{fill:none;stroke:#000;stroke-linecap:round;stroke-linejoin:round;stroke-width:4px;}</style></defs><rect class="cls-1" x="9.96" y="26.42" width="60" height="12" rx="4"/><path class="cls-1" d="M66,38.42v26a4,4,0,0,1-4,4H18a4,4,0,0,1-4-4v-26"/><line class="cls-1" x1="39.96" y1="26.42" x2="39.96" y2="68.41"/><path class="cls-1" d="M26.43,26.24S18,23.59,18,17.59c0-5.2,4-6,6-6,2.52,0,10,2,16,14"/><path class="cls-1" d="M53.48,26.24s8.41-2.65,8.41-8.65c0-5.2-4-6-6-6-2.51,0-10,2-16,14"/></svg>